<svg width="50" height="50" viewBox="0 0 50 50" fill="none" xmlns="http://www.w3.org/2000/svg">
<rect width="50" height="50" rx="25" fill="#231307"/>
<mask id="mask0_139_443" style="mask-type:alpha" maskUnits="userSpaceOnUse" x="10" y="10" width="30" height="30">
<rect x="10" y="10" width="30" height="30" fill="#686868"/>
</mask>
<g mask="url(#mask0_139_443)">
<path d="M22.1955 26.25C21.3046 26.25 20.8584 27.3271 21.4884 27.9571L26.0679 32.5366C26.4608 32.9296 26.458 33.5676 26.0616 33.9571L25.7071 34.3054C25.3155 34.69 24.6872 34.6872 24.2991 34.2991L15.7071 25.7071C15.3166 25.3166 15.3166 24.6834 15.7071 24.2929L24.2991 15.7009C24.6872 15.3128 25.3155 15.31 25.7071 15.6946L26.0616 16.0429C26.458 16.4324 26.4608 17.0704 26.0679 17.4634L21.4884 22.0429C20.8584 22.6729 21.3046 23.75 22.1955 23.75H34C34.5523 23.75 35 24.1977 35 24.75V25.25C35 25.8023 34.5523 26.25 34 26.25H22.1955Z" fill="#FFFDFB"/>
</g>
</svg>
