<svg width="65" height="65" viewBox="0 0 65 65" fill="none" xmlns="http://www.w3.org/2000/svg">
<rect width="65" height="65" rx="32.5" fill="#D83039"/>
<path d="M19 19V37L26 33.5V40.5L41 41L46.5 45L46 26L39.5 25L39 19H19Z" fill="#FFFDFB"/>
<path d="M45.3333 24.3333H40.6666V19.6666C40.6666 19.0478 40.4208 18.4543 39.9832 18.0167C39.5456 17.5791 38.9521 17.3333 38.3333 17.3333H19.6666C19.0477 17.3333 18.4543 17.5791 18.0167 18.0167C17.5791 18.4543 17.3333 19.0478 17.3333 19.6666V38.3333C17.3339 38.5528 17.3965 38.7676 17.5138 38.9532C17.6311 39.1387 17.7984 39.2873 17.9964 39.3821C18.1944 39.4768 18.4151 39.5138 18.6331 39.4887C18.8512 39.4636 19.0577 39.3776 19.2291 39.2404L24.3333 35.125V39.5C24.3333 40.1188 24.5791 40.7123 25.0167 41.1499C25.4543 41.5875 26.0477 41.8333 26.6666 41.8333H40.3151L45.7708 46.2404C45.9772 46.4074 46.2344 46.4989 46.4999 46.5C46.8093 46.5 47.1061 46.3771 47.3249 46.1583C47.5437 45.9395 47.6666 45.6427 47.6666 45.3333V26.6666C47.6666 26.0478 47.4208 25.4543 46.9832 25.0167C46.5456 24.5791 45.9521 24.3333 45.3333 24.3333ZM23.5385 32.7596L19.6666 35.8906V19.6666H38.3333V32.5H24.272C24.005 32.5 23.7461 32.5916 23.5385 32.7596ZM45.3333 42.8906L41.4614 39.7596C41.2549 39.5926 40.9977 39.501 40.7322 39.5H26.6666V34.8333H38.3333C38.9521 34.8333 39.5456 34.5875 39.9832 34.1499C40.4208 33.7123 40.6666 33.1188 40.6666 32.5V26.6666H45.3333V42.8906Z" fill="#231307"/>
</svg>
