<svg width="65" height="65" viewBox="0 0 65 65" fill="none" xmlns="http://www.w3.org/2000/svg">
<rect width="65" height="65" rx="32.5" fill="#F7A3CB"/>
<path d="M41.7187 25.4934C41.8082 26.6572 38.617 31.5768 39.2873 34.102C39.0567 34.1972 39.1446 34.7212 41.3416 36.0559C44.0879 37.7242 42.3919 40.4256 41.2983 41.6775C40.2047 42.9294 34.9591 45.8951 29.1545 44.6886C23.3499 43.4822 18.1911 35.2047 21.2032 27.9574C24.2153 20.7102 33.1895 19.8078 36.8286 20.7074C40.4676 21.6069 41.6291 24.3296 41.7187 25.4934Z" fill="#FFFDFB" stroke="black"/>
<path d="M27.5445 20.2487C24.218 21.6406 21.5856 24.2695 20.221 27.5624L20.1673 27.6916C18.8265 31.0147 18.8731 34.724 20.2967 38.0135C21.7204 41.3031 24.4063 43.9071 27.7707 45.2599C33.0509 47.3833 38.8132 45.9534 42.8163 41.5323C43.2674 41.0335 43.5903 40.4356 43.7581 39.7886C43.9258 39.1417 43.9333 38.4647 43.7801 37.8143C43.6269 37.1639 43.3174 36.5591 42.8776 36.0507C42.4377 35.5422 41.8803 35.1449 41.2522 34.8921C40.7311 34.6826 40.316 34.278 40.0981 33.7674C39.8803 33.2568 39.8776 32.682 40.0907 32.1694L42.4105 26.5878C42.7792 25.7128 42.8326 24.74 42.5618 23.831C42.2909 22.922 41.7122 22.1315 40.9216 21.5906C40.0447 20.9859 39.0993 20.4832 38.1046 20.0927C36.4214 19.4301 34.6214 19.1028 32.8087 19.1296C30.996 19.1564 29.2067 19.5367 27.5445 20.2487ZM39.7043 23.3059C40.0978 23.5762 40.3857 23.9705 40.5206 24.4235C40.6554 24.8766 40.629 25.3614 40.4458 25.7977L38.1259 31.3793C37.6999 32.4044 37.7053 33.554 38.1409 34.5752C38.5766 35.5965 39.4068 36.4056 40.4489 36.8247C40.7626 36.9514 41.0408 37.1501 41.2603 37.4042C41.4799 37.6583 41.6343 37.9605 41.7108 38.2854C41.7872 38.6103 41.7834 38.9485 41.6997 39.2716C41.616 39.5948 41.4548 39.8935 41.2296 40.1429C37.8442 43.8848 32.9945 45.105 28.5739 43.3273C25.7272 42.1827 23.4546 39.9794 22.2499 37.196C21.0452 34.4127 21.0057 31.2742 22.14 28.4624L22.1852 28.3537C23.36 25.558 25.6048 23.3286 28.4355 22.1462C31.2662 20.9638 34.4559 20.9231 37.3168 22.0329C38.1603 22.3637 38.9621 22.7893 39.7063 23.3011L39.7043 23.3059ZM27.2088 28.6807C27.5002 28.7979 27.7498 28.9975 27.9259 29.2542C28.102 29.511 28.1968 29.8133 28.1982 30.123C28.1997 30.4327 28.1077 30.7359 27.934 30.9942C27.7603 31.2525 27.5126 31.4543 27.2223 31.5741C26.932 31.694 26.612 31.7264 26.303 31.6674C25.9939 31.6084 25.7095 31.4605 25.4859 31.2425C25.2622 31.0246 25.1093 30.7462 25.0464 30.4428C24.9836 30.1393 25.0136 29.8243 25.1328 29.5376C25.2926 29.1532 25.601 28.847 25.9904 28.6863C26.3797 28.5256 26.8179 28.5236 27.2088 28.6807ZM27.9469 35.1805C28.2384 35.2977 28.4879 35.4973 28.6641 35.754C28.8402 36.0107 28.935 36.3131 28.9364 36.6228C28.9379 36.9325 28.8459 37.2356 28.6722 37.4939C28.4985 37.7523 28.2508 37.9541 27.9605 38.0739C27.6702 38.1938 27.3502 38.2262 27.0412 38.1672C26.7321 38.1082 26.4477 37.9603 26.2241 37.7423C26.0004 37.5244 25.8475 37.246 25.7846 36.9426C25.7218 36.6391 25.7518 36.3241 25.871 36.0374C26.0308 35.653 26.3392 35.3468 26.7286 35.1861C27.1179 35.0254 27.5561 35.0234 27.9469 35.1805ZM34.8235 37.9459C35.1149 38.0631 35.3645 38.2627 35.5406 38.5194C35.7167 38.7761 35.8115 39.0784 35.8129 39.3881C35.8144 39.6978 35.7225 40.001 35.5487 40.2593C35.375 40.5176 35.1273 40.7194 34.837 40.8393C34.5467 40.9591 34.2268 40.9916 33.9177 40.9325C33.6086 40.8735 33.3242 40.7257 33.1006 40.5077C32.8769 40.2897 32.724 40.0114 32.6612 39.7079C32.5983 39.4044 32.6284 39.0894 32.7475 38.8028C32.9073 38.4183 33.2158 38.1121 33.6051 37.9514C33.9944 37.7907 34.4327 37.7887 34.8235 37.9459ZM32.3647 24.5512C32.6561 24.6684 32.9057 24.868 33.0818 25.1247C33.258 25.3814 33.3527 25.6838 33.3542 25.9935C33.3556 26.3032 33.2637 26.6063 33.09 26.8647C32.9163 27.123 32.6686 27.3248 32.3783 27.4446C32.0879 27.5645 31.768 27.5969 31.4589 27.5379C31.1498 27.4789 30.8655 27.331 30.6418 27.113C30.4182 26.8951 30.2652 26.6167 30.2024 26.3133C30.1395 26.0098 30.1696 25.6948 30.2887 25.4081C30.4485 25.0237 30.757 24.7175 31.1463 24.5568C31.5356 24.3961 31.9739 24.3941 32.3647 24.5512Z" fill="#231307"/>
<path d="M40.0684 28.3799C41.4926 26.7185 45.018 22.9946 48.067 23.1818C47.8767 26.1809 43.6819 29.1587 41.8289 30.3422" fill="#FFFDFB"/>
<path d="M40.0684 28.3799C41.4926 26.7185 45.018 22.9946 48.067 23.1818C47.8767 26.1809 43.6819 29.1587 41.8289 30.3422" stroke="#231307" stroke-linecap="round" stroke-linejoin="round"/>
<path d="M41.5869 26.7479C42.4845 27.3172 43.2044 28.1196 43.6671 29.0665" stroke="#231307" stroke-linecap="round" stroke-linejoin="round"/>
<path d="M33.042 34.6975L38.2446 35.0169C38.9487 35.0602 39.65 34.897 40.2598 34.5482C40.8696 34.1994 41.3605 33.6806 41.6705 33.0573C41.9806 32.434 42.0957 31.7343 42.0015 31.0466C41.9072 30.359 41.6078 29.7142 41.141 29.194C40.6743 28.6737 40.0611 28.3013 39.3792 28.1238C38.6972 27.9463 37.9771 27.9717 37.3098 28.1968C36.6426 28.4219 36.0581 28.8365 35.6305 29.3883C35.2028 29.9402 34.951 30.6043 34.9071 31.2969C34.7533 33.721 33.042 34.6975 33.042 34.6975Z" fill="#FFFDFB" stroke="#231307" stroke-linecap="round" stroke-linejoin="round"/>
</svg>
