<svg width="65" height="65" viewBox="0 0 65 65" fill="none" xmlns="http://www.w3.org/2000/svg">
<rect x="1" y="1" width="63" height="63" rx="31.5" stroke="#7D8BC8" stroke-width="2"/>
<path d="M43 17.561H47.375V21.8293" stroke="#231307" stroke-width="2" stroke-linecap="round" stroke-linejoin="round"/>
<path d="M22 47.439H17.625V43.1707" stroke="#231307" stroke-width="2" stroke-linecap="round" stroke-linejoin="round"/>
<path d="M47.375 43.1707V47.439H43" stroke="#231307" stroke-width="2" stroke-linecap="round" stroke-linejoin="round"/>
<path d="M17.625 21.8293V17.561H22" stroke="#231307" stroke-width="2" stroke-linecap="round" stroke-linejoin="round"/>
<path d="M23.5 27.5C24 20.5 32.5 21.5 32.5 26.5C35.5 19 41.5 23.5 41.5 27.5C47.5 31.5 43.5 37 41.5 37.5C40.5 44 34.5 42.5 32.5 40C29 45 22.5 40 24 37.5C20 37.5 18.5 29.5 23.5 27.5Z" fill="#FFFDFB"/>
<path d="M28.1296 33.7805C28.9949 33.7805 29.8408 34.0308 30.5603 34.4999C31.2797 34.9689 31.8405 35.6355 32.1716 36.4154C32.5027 37.1953 32.5894 38.0535 32.4206 38.8815C32.2518 39.7095 31.8351 40.47 31.2232 41.0669C30.6114 41.6639 29.8318 42.0704 28.9832 42.2351C28.1345 42.3998 27.2548 42.3153 26.4554 41.9922C25.656 41.6691 24.9727 41.1221 24.492 40.4201C24.0112 39.7182 23.7546 38.893 23.7546 38.0488V37.3307" stroke="#231307" stroke-width="2" stroke-linecap="round" stroke-linejoin="round"/>
<path d="M36.8796 33.7805C36.0143 33.7805 35.1685 34.0308 34.449 34.4999C33.7296 34.9689 33.1688 35.6355 32.8377 36.4154C32.5065 37.1953 32.4199 38.0535 32.5887 38.8815C32.7575 39.7095 33.1742 40.47 33.786 41.0669C34.3979 41.6639 35.1775 42.0704 36.0261 42.2351C36.8748 42.3998 37.7545 42.3153 38.5539 41.9922C39.3533 41.6691 40.0366 41.1221 40.5173 40.4201C40.9981 39.7182 41.2546 38.893 41.2546 38.0488V37.3307" stroke="#231307" stroke-width="2" stroke-linecap="round" stroke-linejoin="round"/>
<path d="M26.3797 37.6219H25.5047C24.2654 37.623 23.0657 37.1964 22.1179 36.4175C21.17 35.6386 20.5351 34.5576 20.3256 33.366C20.1161 32.1743 20.3454 30.9488 20.973 29.9062C21.6005 28.8637 22.5859 28.0713 23.7547 27.6694V26.9512C23.7547 25.8192 24.2157 24.7335 25.0361 23.9331C25.8566 23.1326 26.9694 22.6829 28.1297 22.6829C29.29 22.6829 30.4028 23.1326 31.2233 23.9331C32.0438 24.7335 32.5047 25.8192 32.5047 26.9512V38.0488" stroke="#231307" stroke-width="2" stroke-linecap="round" stroke-linejoin="round"/>
<path d="M38.6296 37.6219H39.5046C40.7439 37.623 41.9436 37.1964 42.8915 36.4175C43.8394 35.6386 44.4742 34.5576 44.6838 33.366C44.8933 32.1743 44.664 30.9488 44.0364 29.9062C43.4088 28.8637 42.4234 28.0713 41.2546 27.6694V26.9512C41.2546 25.8192 40.7937 24.7335 39.9732 23.9331C39.1528 23.1326 38.04 22.6829 36.8796 22.6829C35.7193 22.6829 34.6065 23.1326 33.786 23.9331C32.9656 24.7335 32.5046 25.8192 32.5046 26.9512" stroke="#231307" stroke-width="2" stroke-linecap="round" stroke-linejoin="round"/>
<path d="M40.3796 31.2195H39.9421C39.1299 31.2195 38.351 30.9047 37.7766 30.3444C37.2023 29.7841 36.8796 29.0241 36.8796 28.2317V27.8049" stroke="#231307" stroke-width="2" stroke-linecap="round" stroke-linejoin="round"/>
<path d="M24.6296 31.2195H25.0671C25.8794 31.2195 26.6583 30.9047 27.2327 30.3444C27.807 29.7841 28.1296 29.0241 28.1296 28.2317V27.8049" stroke="#231307" stroke-width="2" stroke-linecap="round" stroke-linejoin="round"/>
</svg>
