<svg width="65" height="65" viewBox="0 0 65 65" fill="none" xmlns="http://www.w3.org/2000/svg">
<rect x="1" y="1" width="63" height="63" rx="31.5" stroke="#8DDAE2" stroke-width="2"/>
<path d="M18.3872 20.6451H40.9679V43.2258C40.9679 44.1241 40.611 44.9856 39.9758 45.6208C39.3406 46.256 38.4791 46.6129 37.5808 46.6129H21.7743C20.876 46.6129 20.0145 46.256 19.3793 45.6208C18.7441 44.9856 18.3872 44.1241 18.3872 43.2258V20.6451Z" fill="#FFFDFB" stroke="#231307" stroke-width="2" stroke-linecap="round" stroke-linejoin="round"/>
<path d="M25.1614 29.6774H34.1936" stroke="#231307" stroke-width="2" stroke-linecap="round" stroke-linejoin="round"/>
<path d="M25.1614 34.1935H34.1936" stroke="#231307" stroke-width="2" stroke-linecap="round" stroke-linejoin="round"/>
<path d="M22.9033 18.3871V22.9032" stroke="#231307" stroke-width="2" stroke-linecap="round" stroke-linejoin="round"/>
<path d="M29.6775 18.3871V22.9032" stroke="#231307" stroke-width="2" stroke-linecap="round" stroke-linejoin="round"/>
<path d="M36.4517 18.3871V22.9032" stroke="#231307" stroke-width="2" stroke-linecap="round" stroke-linejoin="round"/>
<path d="M45.6386 29.0969L41.9697 29.1344L33.2689 39.4972L37.3409 43.0027L46.1677 33.0055L45.6386 29.0969Z" fill="#FFFDFB"/>
<path d="M31.6145 41.6943L35.5722 45.133C35.7038 45.2474 35.8567 45.3347 36.022 45.3899C36.1874 45.4452 36.362 45.4674 36.536 45.4552C36.7099 45.4429 36.8797 45.3966 37.0357 45.3187C37.1917 45.2409 37.3308 45.1331 37.4452 45.0014L46.9336 34.0785C47.0485 33.9473 47.1362 33.7946 47.1916 33.6292C47.2469 33.4638 47.2688 33.2891 47.256 33.1152L46.9962 29.4167C46.9715 29.0655 46.8083 28.7385 46.5425 28.5076C46.2767 28.2767 45.9301 28.1609 45.5789 28.1856L41.8802 28.4454C41.7062 28.4571 41.5363 28.5032 41.3803 28.5812C41.2242 28.6591 41.0853 28.7672 40.9714 28.8994L31.4829 39.8215C31.3685 39.9531 31.2812 40.1059 31.226 40.2713C31.1707 40.4366 31.1485 40.6112 31.1607 40.7852C31.173 40.9591 31.2193 41.1289 31.2972 41.2849C31.375 41.4409 31.4829 41.58 31.6145 41.6943ZM45.6771 33.5014L39.1603 41.0028L37.682 39.7186L44.1988 32.218L45.6771 33.5014ZM45.8388 31.8841L43.2975 29.6765L45.672 29.5097L45.8388 31.8841ZM41.7186 30.0628L43.1969 31.347L36.6801 38.8484L35.2018 37.5642L41.7186 30.0628ZM34.3315 38.5659L38.2901 42.0046L36.4433 44.1304L32.4848 40.6925L34.3315 38.5659Z" fill="#231307"/>
</svg>
