<svg width="65" height="65" viewBox="0 0 65 65" fill="none" xmlns="http://www.w3.org/2000/svg">
<rect width="65" height="65" rx="32.5" fill="#F2C100"/>
<path d="M28.2795 38.5294C33.2744 38.5294 37.3236 34.4802 37.3236 29.4853C37.3236 24.4904 33.2744 20.4412 28.2795 20.4412C23.2845 20.4412 19.2354 24.4904 19.2354 29.4853C19.2354 34.4802 23.2845 38.5294 28.2795 38.5294Z" fill="#FFFDFB" stroke="#231307" stroke-width="2" stroke-linecap="round" stroke-linejoin="round"/>
<path d="M15.6177 44.5588C18.7153 40.8734 23.0881 38.5294 28.2794 38.5294C33.4708 38.5294 37.8436 40.8734 40.9412 44.5588" fill="#FFFDFB"/>
<path d="M15.6177 44.5588C18.7153 40.8734 23.0881 38.5294 28.2794 38.5294C33.4708 38.5294 37.8436 40.8734 40.9412 44.5588" stroke="#231307" stroke-width="2" stroke-linecap="round" stroke-linejoin="round"/>
<path d="M45.7648 37.3235C47.0968 37.3235 48.1766 36.2437 48.1766 34.9118C48.1766 33.5798 47.0968 32.5 45.7648 32.5C44.4328 32.5 43.353 33.5798 43.353 34.9118C43.353 36.2437 44.4328 37.3235 45.7648 37.3235Z" fill="#FFFDFB" stroke="#231307" stroke-width="2" stroke-linecap="round" stroke-linejoin="round"/>
<path d="M45.7646 32.5V30.6912" stroke="#231307" stroke-width="2" stroke-linecap="round" stroke-linejoin="round"/>
<path d="M43.6755 33.7059L42.1094 32.8015" stroke="#231307" stroke-width="2" stroke-linecap="round" stroke-linejoin="round"/>
<path d="M43.6755 36.1176L42.1094 37.0221" stroke="#231307" stroke-width="2" stroke-linecap="round" stroke-linejoin="round"/>
<path d="M45.7646 37.3235V39.1323" stroke="#231307" stroke-width="2" stroke-linecap="round" stroke-linejoin="round"/>
<path d="M47.854 36.1176L49.4201 37.0221" stroke="#231307" stroke-width="2" stroke-linecap="round" stroke-linejoin="round"/>
<path d="M47.854 33.7059L49.4201 32.8015" stroke="#231307" stroke-width="2" stroke-linecap="round" stroke-linejoin="round"/>
</svg>
