<svg width="65" height="65" viewBox="0 0 65 65" fill="none" xmlns="http://www.w3.org/2000/svg">
<rect width="65" height="65" rx="32.5" fill="#006156"/>
<path d="M37.3277 47.3077H19.0385C18.6815 47.3077 18.3391 47.1659 18.0867 46.9134C17.8342 46.661 17.6924 46.3186 17.6924 45.9616V19.0385C17.6924 18.6815 17.8342 18.3391 18.0867 18.0866C18.3391 17.8341 18.6815 17.6923 19.0385 17.6923H45.9616C46.3186 17.6923 46.661 17.8341 46.9135 18.0866C47.1659 18.3391 47.3078 18.6815 47.3078 19.0385V37.3277C47.3076 37.6842 47.166 38.0261 46.914 38.2784L38.2784 46.914C38.0262 47.1659 37.6843 47.3075 37.3277 47.3077Z" fill="#FFFDFB" stroke="#231307" stroke-width="2" stroke-linecap="round" stroke-linejoin="round"/>
<path d="M47.1867 37.8829H37.8848V47.1849" fill="#FFFDFB"/>
<path d="M47.1867 37.8829H37.8848V47.1849" stroke="#231307" stroke-width="2" stroke-linecap="round" stroke-linejoin="round"/>
<path d="M28.0129 42.8205C29.7476 42.8205 31.1539 41.4142 31.1539 39.6795C31.1539 37.9447 29.7476 36.5385 28.0129 36.5385C26.2781 36.5385 24.8718 37.9447 24.8718 39.6795C24.8718 41.4142 26.2781 42.8205 28.0129 42.8205Z" stroke="#231307" stroke-width="2" stroke-linecap="round" stroke-linejoin="round"/>
<path d="M24.8718 26.6667L29.359 31.1538" stroke="#231307" stroke-width="2" stroke-linecap="round" stroke-linejoin="round"/>
<path d="M29.359 26.6667L24.8718 31.1538" stroke="#231307" stroke-width="2" stroke-linecap="round" stroke-linejoin="round"/>
<path d="M35.6411 26.6667V22.1795H40.1283" stroke="#231307" stroke-width="2" stroke-linecap="round" stroke-linejoin="round"/>
<path d="M35.6411 22.1795L37.436 23.9743C41.9231 28.4615 38.3334 33.8461 34.7437 34.7436" stroke="#231307" stroke-width="2" stroke-linecap="round" stroke-linejoin="round"/>
</svg>
